HIERARCHY
ROOT hip
{
	OFFSET 0.00000 0.00000 0.00000
	CHANNELS 6 Xposition Yposition Zposition Zrotation Yrotation Xrotation 
	JOINT rightuplegdummy
	{
		OFFSET 0 0 0
		CHANNELS 3 Zrotation Yrotation Xrotation
		JOINT rightupleg
		{
			OFFSET -3.52197 -3.41223 0.04002
			CHANNELS 3 Zrotation Yrotation Xrotation
			JOINT rightleg
			{
				OFFSET 0.00006 -17.42390 1.60435
				CHANNELS 3 Zrotation Yrotation Xrotation
				JOINT rightfoot
				{
					OFFSET 0.06153 -16.50078 -1.63901
					CHANNELS 3 Zrotation Yrotation Xrotation
					JOINT righttoes
					{
						OFFSET 0.00298 -1.73825 3.34613
						CHANNELS 3 Zrotation Yrotation Xrotation
						End Site
						{
							OFFSET 0.00480 -0.05416 3.85043
						}
					}
				}
			}
		}
	}
	JOINT spinedummy
	{
		OFFSET 0 0 0
		CHANNELS 3 Zrotation Yrotation Xrotation
		JOINT spine
		{
			OFFSET 0.00000 4.68130 0.00000
			CHANNELS 3 Zrotation Yrotation Xrotation
			JOINT spine1
			{
				OFFSET -0.00000 10.10138 0.05002
				CHANNELS 3 Zrotation Yrotation Xrotation
				JOINT headdummy
				{
					OFFSET 0 0 0
					CHANNELS 3 Zrotation Yrotation Xrotation
					JOINT head
					{
						OFFSET -0.00000 3.43865 0.00438
						CHANNELS 3 Zrotation Yrotation Xrotation
						End Site
						{
							OFFSET -0.11417 5.02924 0.98962
						}
					}
				}
				JOINT leftshoulder1dummy
				{
					OFFSET 0 0 0
					CHANNELS 3 Zrotation Yrotation Xrotation
					JOINT leftshoulder1
					{
						OFFSET 3.53937 -0.14262 -0.08662
						CHANNELS 3 Zrotation Yrotation Xrotation
						JOINT leftarm
						{
							OFFSET 4.04833 -0.00133 0.12681
							CHANNELS 3 Zrotation Yrotation Xrotation
							JOINT leftforearm
							{
								OFFSET 10.33880 -0.01036 -0.55515
								CHANNELS 3 Zrotation Yrotation Xrotation
								JOINT lefthand
								{
									OFFSET 8.69677 0.07543 0.40060
									CHANNELS 3 Zrotation Yrotation Xrotation
									End Site
									{
										OFFSET 5.28377 -0.21905 0.59205
									}
								}
							}
						}
					}
				}
				JOINT rightshoulderdummy
				{
					OFFSET 0 0 0
					CHANNELS 3 Zrotation Yrotation Xrotation
					JOINT rightshoulder
					{
						OFFSET -3.53937 -0.14262 -0.08660
						CHANNELS 3 Zrotation Yrotation Xrotation
						JOINT rightarm
						{
							OFFSET -4.04833 -0.00133 0.12683
							CHANNELS 3 Zrotation Yrotation Xrotation
							JOINT rightforearm
							{
								OFFSET -10.37987 -0.01039 -0.55511
								CHANNELS 3 Zrotation Yrotation Xrotation
								JOINT righthand
								{
									OFFSET -8.67398 0.07538 0.40058
									CHANNELS 3 Zrotation Yrotation Xrotation
									End Site
									{
										OFFSET -5.24810 -0.21916 0.59204
									}
								}
							}
						}
					}
				}
			}
		}
	}
	JOINT leftuplegdummy
	{
		OFFSET 0 0 0
		CHANNELS 3 Zrotation Yrotation Xrotation
		JOINT leftupleg
		{
			OFFSET 3.52197 -3.41223 0.04002
			CHANNELS 3 Zrotation Yrotation Xrotation
			JOINT leftleg
			{
				OFFSET -0.00012 -17.42399 1.60337
				CHANNELS 3 Zrotation Yrotation Xrotation
				JOINT leftfoot
				{
					OFFSET -0.09972 -16.50070 -1.63802
					CHANNELS 3 Zrotation Yrotation Xrotation
					JOINT lefttoes
					{
						OFFSET -0.01575 -1.73823 3.34611
						CHANNELS 3 Zrotation Yrotation Xrotation
						End Site
						{
							OFFSET 0.03150 -0.01868 3.85031
						}
					}
				}
			}
		}
	}
}
MOTION
Frames: 6
Frame Time: 0.033333
-14.6585 39.3830 24.0349 -5.3260 -45.1271 11.2607 0.0000 -0.0000 0.0000 -14.4168 10.8722 -17.9174 -1.2514 -1.7083 16.6730 11.2806 -0.9039 -2.2831 0.0000 0.0000 0.0000 0.0000 -0.0000 0.0000 -7.9813 -1.7626 16.5396 13.2364 -5.6497 3.8334 -0.0000 -0.0000 -0.0000 -17.9599 43.0903 -40.9860 -0.0000 -0.0000 -0.0000 -28.7940 -10.5635 4.8997 -41.5578 -17.3097 24.2927 176.9401 -74.9019 -150.4958 3.0710 -4.2146 -0.2181 -0.0000 -0.0000 -0.0000 29.7530 6.2217 3.4790 43.1742 -25.6001 9.4671 -67.8156 89.1580 -41.6275 -1.8921 9.9954 -0.1664 0.0000 -0.0000 0.0000 20.9141 0.9831 -15.3371 10.1331 15.3105 27.3958 -3.8442 0.4183 0.7052 0.0000 0.0000 0.0000
-13.9564 38.4615 24.5063 -5.4987 -42.9997 9.6273 0.0000 -0.0000 0.0000 -15.6696 11.9290 -17.4624 -2.0656 -3.7305 20.9424 12.9487 -0.5000 -7.1588 0.0000 0.0000 0.0000 0.0000 -0.0000 0.0000 -7.2427 -1.8130 19.1734 12.3125 -5.4204 2.2099 -0.0000 -0.0000 -0.0000 -18.4913 40.4372 -41.8061 -0.0000 -0.0000 -0.0000 -28.9162 -10.6889 4.9597 -41.5467 -15.1472 25.9374 175.4982 -78.7783 -147.5786 2.9895 -4.2862 -0.2116 -0.0000 -0.0000 -0.0000 29.9539 6.1526 3.4733 39.1668 -20.9308 10.3737 -29.1222 88.5802 -4.9069 -3.1710 9.4681 -0.3250 0.0000 -0.0000 0.0000 23.9248 -4.9779 -15.4911 8.7067 13.1841 27.1007 -11.1574 1.0399 -0.8856 0.0000 0.0000 0.0000
-12.9909 37.3430 25.0906 -5.9290 -41.8719 8.6162 0.0000 -0.0000 0.0000 -17.1302 9.6354 -18.1345 -1.4302 -1.9956 25.6150 14.8777 -0.0344 -11.4049 0.0000 0.0000 0.0000 0.0000 -0.0000 0.0000 -5.3287 -1.9605 19.8560 9.9522 -4.9592 2.9941 -0.0000 -0.0000 -0.0000 -19.6094 37.6275 -43.3276 -0.0000 -0.0000 -0.0000 -31.0228 -11.3330 5.4934 -38.4085 -14.7667 25.8477 172.8446 -83.5162 -146.1066 4.8050 -4.4614 -0.3692 -0.0000 -0.0000 -0.0000 29.7270 6.0608 3.4190 35.6530 -14.1281 9.1168 -9.8011 85.7474 15.3436 -3.8627 9.1980 -0.4075 0.0000 -0.0000 0.0000 24.5641 -5.6089 -17.0350 6.6298 8.2210 31.8325 -21.8450 0.5904 -8.5416 0.0000 0.0000 0.0000
-11.8620 36.6432 25.8656 -5.5972 -40.8639 7.5516 0.0000 -0.0000 0.0000 -19.5794 7.2762 -17.2389 -0.4674 -0.3806 26.3251 17.5393 0.1794 -12.8421 0.0000 0.0000 0.0000 0.0000 -0.0000 0.0000 -3.6186 -1.8402 18.6005 7.4181 -4.2928 5.9456 -0.0000 -0.0000 -0.0000 -20.0865 34.3367 -44.7865 -0.0000 -0.0000 -0.0000 -33.5379 -12.1009 6.1701 -36.6159 -15.1555 24.2967 78.1896 -89.1365 -50.1291 6.4272 -4.3347 -0.5008 -0.0000 -0.0000 -0.0000 29.1132 5.8515 3.2880 34.4096 -9.1691 5.1073 -6.6273 83.2684 19.5002 -6.5360 8.0599 -0.6899 0.0000 -0.0000 0.0000 22.4055 -6.0419 -18.9132 7.1229 7.3559 36.9027 -23.7391 -0.8071 -15.7127 0.0000 0.0000 0.0000
-10.6578 36.6567 26.7374 -4.7277 -40.4499 6.8126 0.0000 -0.0000 0.0000 -22.6933 8.4040 -15.3696 -1.0979 -1.7732 22.5291 19.9748 -0.4156 -9.2832 0.0000 0.0000 0.0000 0.0000 -0.0000 0.0000 -2.4555 -1.0440 17.0760 5.7299 -2.9974 7.5900 -0.0000 -0.0000 -0.0000 -19.9839 31.2524 -44.9512 -0.0000 -0.0000 -0.0000 -35.8724 -12.7923 6.8303 -36.9431 -11.5209 21.2540 13.6528 -85.6324 17.5436 6.9870 -3.9858 -0.5299 -0.0000 -0.0000 -0.0000 29.2777 5.7352 3.2620 34.5438 -9.1561 2.4248 -6.7873 84.3803 17.3549 -7.7865 6.7901 -0.7616 0.0000 -0.0000 0.0000 19.0031 -8.3924 -20.2488 9.4053 9.1509 39.2717 -20.3151 -1.0293 -17.6469 0.0000 0.0000 0.0000
-9.5701 37.2914 27.5562 -4.7968 -41.2656 7.4054 0.0000 -0.0000 0.0000 -23.6703 9.4875 -13.9534 -3.2126 -6.4871 16.7040 18.2613 -1.7436 -0.5037 0.0000 0.0000 0.0000 0.0000 -0.0000 0.0000 -0.8857 -0.0314 15.9370 4.4816 -1.3157 6.9099 -0.0000 -0.0000 -0.0000 -19.8096 30.2800 -43.6275 -0.0000 -0.0000 -0.0000 -36.5750 -12.9236 7.0027 -37.3939 -2.4229 18.2804 19.7568 -87.3957 9.0447 6.9403 -3.6980 -0.5112 -0.0000 -0.0000 -0.0000 30.0090 5.8335 3.3638 35.7473 -11.2444 4.6728 -11.1481 86.7792 11.8054 -6.0343 6.8856 -0.5799 0.0000 -0.0000 0.0000 16.5064 -7.5507 -19.5721 8.9996 9.5059 36.9318 -18.2985 -0.7033 -16.3235 0.0000 0.0000 0.0000
